<svg xmlns="http://www.w3.org/2000/svg" width="186" height="48" fill="none"><path fill="red" d="M0 0h185.491v48H0z"/><path fill="#fff" d="M8 8h169.491v32H8z"/><path fill="red" d="M164.624 32h-3.6q-.423 0-.622-.178-.178-.2-.178-.622V20.289h-3.267q-.422 0-.622-.178-.178-.2-.178-.622V16.8q0-.423.178-.6.2-.2.622-.2h11.734q.422 0 .6.2.2.178.2.6v2.689q0 .422-.2.622-.178.178-.6.178h-3.267V31.2q0 .423-.2.622-.178.178-.6.178M144.059 32q-.423 0-.622-.178-.178-.2-.178-.622v-2.644q0-.423.178-.6.2-.2.622-.2h2.2v-7.467h-2.2q-.423 0-.622-.178-.178-.2-.178-.622V16.8q0-.423.178-.6.2-.2.622-.2h9.466q.423 0 .6.2.2.178.2.6v2.689q0 .422-.2.622-.177.178-.6.178h-2.155v7.467h2.155q.423 0 .6.2.2.177.2.6V31.2q0 .423-.2.622-.177.178-.6.178zM131.279 32h-3.445q-.422 0-.622-.178-.178-.2-.178-.622V16.8q0-.423.178-.6.2-.2.622-.2h3.445q.421 0 .6.2.2.178.2.6v5.111h.889l2.288-5.178q.156-.399.423-.555.266-.178.689-.178h3.422q.378 0 .511.2.133.178-.022.533l-2.267 5.178q1.245.066 1.978.889.755.8.755 2.133V31.2q0 .423-.2.622-.177.178-.6.178h-3.422q-.422 0-.622-.178-.178-.2-.178-.622v-4.333q0-.356-.178-.556-.177-.2-.533-.2h-2.933V31.2q0 .423-.2.622-.179.178-.6.178M110.551 20v2.844h1.666q.578 0 .778-.288.2-.312.2-.756v-.756q0-.444-.2-.733-.2-.31-.778-.311zm-.8 12h-3.423q-.422 0-.622-.178-.178-.2-.178-.622V16.8q0-.423.178-.6.2-.2.622-.2h7.4q2.49 0 3.423 1.044.955 1.022.955 2.667v1.022q0 .934-.289 1.6-.267.645-.955.934 1.2.134 1.933.977.756.845.756 2.245V31.2q0 .423-.2.622-.178.178-.6.178h-3.445q-.422 0-.622-.178-.178-.2-.178-.622v-3.4q0-.489-.2-.711-.177-.245-.644-.245h-3.111V31.2q0 .423-.2.622-.178.178-.6.178M102.099 32h-10.31q-.423 0-.623-.178-.177-.2-.178-.622V16.8q0-.423.178-.6.2-.2.622-.2H102.1q.423 0 .6.2.2.178.2.6v2.6q0 .423-.2.622-.177.178-.6.178h-6.133v1.711h4.333q.423 0 .6.2.2.178.2.6v2.378q0 .422-.2.622-.177.178-.6.178h-4.333V27.8h6.133q.423 0 .6.2.2.178.2.6v2.6q0 .423-.2.622-.177.178-.6.178M83.96 32h-3.6q-.423 0-.622-.178-.178-.2-.178-.622V20.289h-3.267q-.422 0-.622-.178-.178-.2-.178-.622V16.8q0-.423.178-.6.2-.2.622-.2h11.733q.423 0 .6.2.2.178.2.6v2.689q0 .422-.2.622-.177.178-.6.178H84.76V31.2q0 .423-.2.622-.178.178-.6.178M65.585 20v2.844h1.666q.579 0 .778-.288.2-.312.2-.756v-.756q0-.444-.2-.733-.2-.31-.778-.311zm-.8 12h-3.422q-.423 0-.623-.178-.177-.2-.178-.622V16.8q0-.423.178-.6.2-.2.622-.2h7.4q2.49 0 3.423 1.044.955 1.022.955 2.667v1.022q0 .934-.289 1.6-.266.645-.955.934 1.2.134 1.933.977.756.845.756 2.245V31.2q0 .423-.2.622-.178.178-.6.178H70.34q-.422 0-.622-.178-.177-.2-.178-.622v-3.4q0-.489-.2-.711-.177-.245-.644-.245h-3.111V31.2q0 .423-.2.622-.178.178-.6.178M50.13 20.667l-1.044 3.377h3.489l-1.045-3.377a.76.76 0 0 0-.2-.29.3.3 0 0 0-.222-.088h-.555q-.134 0-.245.089a1 1 0 0 0-.178.289M48.864 31.2q0 .423-.2.622-.179.178-.6.178h-3.267q-.422 0-.622-.178-.178-.2-.178-.622v-5.867q0-.666.2-1.533.222-.867.667-2.022l1.933-5.045q.133-.378.4-.555.29-.178.733-.178h5.978q.422 0 .69.178.288.177.421.555l1.934 5.045q.443 1.155.644 2.022.222.867.222 1.533V31.2q0 .423-.2.622-.177.178-.6.178h-3.355q-.445 0-.667-.178-.2-.2-.2-.622v-3.111h-3.933zM38.192 32h-3.6q-.422 0-.622-.178-.178-.2-.178-.622V20.289h-3.266q-.423 0-.623-.178-.177-.2-.177-.622V16.8q0-.423.177-.6.2-.2.623-.2h11.733q.421 0 .6.2.2.178.2.6v2.689q0 .422-.2.622-.179.178-.6.178h-3.267V31.2q0 .423-.2.622-.177.178-.6.178M23.822 32H16.8q-.423 0-.622-.178-.178-.2-.178-.622v-2.6q0-.423.178-.6.2-.2.622-.2h5.978q.288 0 .422-.178a.74.74 0 0 0 .156-.466q0-.378-.156-.556-.134-.178-.422-.2l-3.334-.467q-1.556-.222-2.51-1.022-.934-.8-.934-2.667v-2.333q0-1.89 1.222-2.889Q18.445 16 20.6 16h6.222q.423 0 .6.2.2.178.2.6v2.644q0 .423-.2.623-.177.177-.6.177h-5.178a.53.53 0 0 0-.444.2.68.68 0 0 0-.156.467q0 .29.156.489a.6.6 0 0 0 .444.222l3.312.445q1.556.222 2.51 1.022.957.8.956 2.667v2.333q0 1.89-1.244 2.911-1.223 1-3.356 1"/></svg>